<svg width="30" height="30" viewBox="0 0 30 30" fill="#DEF2F1" xmlns="http://www.w3.org/2000/svg">
<path fill-rule="evenodd" clip-rule="evenodd" d="M29.6325 0.367188C29.7488 0.483287 29.8412 0.621209 29.9042 0.773052C29.9672 0.924896 29.9996 1.08768 29.9996 1.25208C29.9996 1.41647 29.9672 1.57926 29.9042 1.7311C29.8412 1.88294 29.7488 2.02086 29.6325 2.13696L2.13651 29.6335C1.90183 29.8682 1.58353 30 1.25164 30C0.919748 30 0.601451 29.8682 0.366769 29.6335C0.132087 29.3988 0.000244141 29.0805 0.000244141 28.7486C0.000244141 28.4167 0.132087 28.0984 0.366769 27.8637L27.8627 0.367188C27.9788 0.250794 28.1167 0.158449 28.2686 0.0954411C28.4204 0.032433 28.5832 0 28.7476 0C28.912 0 29.0748 0.032433 29.2266 0.0954411C29.3784 0.158449 29.5164 0.250794 29.6325 0.367188Z"/>
<path fill-rule="evenodd" clip-rule="evenodd" d="M0.36718 0.367188C0.250789 0.483287 0.158446 0.621209 0.0954392 0.773052C0.0324324 0.924896 0 1.08768 0 1.25208C0 1.41647 0.0324324 1.57926 0.0954392 1.7311C0.158446 1.88294 0.250789 2.02086 0.36718 2.13696L27.8631 29.6335C28.0978 29.8682 28.4161 30 28.748 30C29.0799 30 29.3982 29.8682 29.6329 29.6335C29.8675 29.3988 29.9994 29.0805 29.9994 28.7486C29.9994 28.4167 29.8675 28.0984 29.6329 27.8637L2.13692 0.367188C2.02082 0.250794 1.8829 0.158449 1.73106 0.0954411C1.57922 0.032433 1.41644 0 1.25205 0C1.08766 0 0.924877 0.032433 0.773036 0.0954411C0.621196 0.158449 0.483277 0.250794 0.36718 0.367188V0.367188Z"/>
</svg>
