<svg width="28" height="30" viewBox="0 0 28 30" fill="#DEF2F1" xmlns="http://www.w3.org/2000/svg">
<path d="M11.2002 0.52C11.3824 0.742408 11.494 1.01459 11.5207 1.30139C11.5473 1.58818 11.4877 1.87641 11.3495 2.12882C10.2703 4.11917 9.70671 6.35017 9.71057 8.61659C9.71057 16.1563 15.8296 22.2615 23.3711 22.2615C24.3548 22.2615 25.3124 22.1584 26.2327 21.9615C26.5148 21.9002 26.8087 21.9236 27.0776 22.029C27.3465 22.1344 27.5785 22.317 27.7447 22.554C27.9202 22.8005 28.0096 23.0983 27.9992 23.4011C27.9887 23.704 27.8789 23.9948 27.6869 24.2285C26.2228 26.035 24.3758 27.4906 22.2806 28.489C20.1854 29.4875 17.8948 30.0037 15.5757 30C6.97025 30 0 23.0359 0 14.4556C0 7.99781 3.9462 2.45883 9.56496 0.111233C9.84485 -0.00758696 10.1556 -0.0319743 10.4504 0.0417347C10.7453 0.115444 11.0084 0.283269 11.2002 0.52ZM9.06842 2.45696C6.90791 3.62106 5.10176 5.3514 3.84191 7.46409C2.58207 9.57678 1.91561 11.9929 1.91337 14.4556C1.91337 21.9934 8.03427 28.0986 15.5757 28.0986C17.3817 28.1018 19.1703 27.7451 20.8381 27.0493C22.5058 26.3534 24.0197 25.3322 25.2919 24.0447C24.6628 24.1235 24.0225 24.1629 23.3711 24.1629C14.7656 24.1629 7.7972 17.1988 7.7972 8.61846C7.7972 6.43025 8.24894 4.34704 9.06842 2.45696Z"/>
</svg>
