<svg width="30" height="30" viewBox="0 0 30 30" fill="#DEF2F1" xmlns="http://www.w3.org/2000/svg">
<path d="M1.865 0.00166512L0 1.86656L4.103 7.61231C4.27573 7.85427 4.50381 8.05143 4.76821 8.18735C5.03261 8.32328 5.32568 8.39403 5.62298 8.3937H5.75353C5.99874 8.39351 6.24158 8.44167 6.46815 8.53543C6.69472 8.62919 6.90058 8.76671 7.07395 8.94012L12.0628 13.9287L7.18212 18.8781C6.34733 18.6324 5.46677 18.5846 4.61028 18.7385C3.75379 18.8923 2.94493 19.2437 2.24788 19.7646C1.55083 20.2855 0.984759 20.9616 0.594569 21.7394C0.204378 22.5172 0.000806055 23.3752 0 24.2453C0.001118 25.0471 0.174571 25.8393 0.508607 26.5682C0.842643 27.2971 1.32946 27.9457 1.93607 28.4701C2.54268 28.9944 3.25491 29.3822 4.02451 29.6073C4.79411 29.8324 5.6031 29.8894 6.39667 29.7745C7.19023 29.6596 7.94983 29.3755 8.624 28.9414C9.29817 28.5074 9.87115 27.9335 10.3041 27.2586C10.7371 26.5838 11.02 25.8237 11.1336 25.03C11.2472 24.2363 11.1888 23.4275 10.9625 22.6583L15.9122 17.7779L17.7175 19.5831L17.1487 21.2876C17.0394 21.6161 17.0237 21.9686 17.1034 22.3056C17.1831 22.6425 17.3551 22.9506 17.6 23.1954L23.8589 29.454C24.2087 29.8036 24.683 30 25.1775 30C25.672 30 26.1463 29.8036 26.4961 29.454L29.454 26.4963C29.8036 26.1465 30 25.6723 30 25.1778C30 24.6833 29.8036 24.209 29.454 23.8593L23.195 17.6007C22.9502 17.3558 22.6421 17.1838 22.3052 17.1041C21.9682 17.0244 21.6157 17.0401 21.2871 17.1494L19.5825 17.7182L17.7921 15.9279L22.7903 10.999C23.6195 11.2203 24.4884 11.2482 25.33 11.0807C26.1717 10.9131 26.9636 10.5545 27.6448 10.0325C28.3259 9.51047 28.8781 8.83902 29.2587 8.06989C29.6393 7.30076 29.8382 6.45449 29.84 5.59636C29.84 5.0947 29.7747 4.60796 29.6498 4.14733L25.6587 8.14007L22.38 7.46125L21.7011 4.18463L25.6941 0.191885C24.7443 -0.063492 23.7439 -0.0639687 22.7938 0.190503C21.8437 0.444974 20.9774 0.9454 20.2824 1.64134C19.5874 2.33727 19.0881 3.20413 18.8349 4.15452C18.5817 5.10491 18.5836 6.10525 18.8402 7.05471L13.9166 12.0489L8.93895 7.07522C8.58917 6.72556 8.39261 6.2513 8.3925 5.75674V5.62433C8.39253 5.32736 8.32164 5.03468 8.18572 4.77064C8.0498 4.5066 7.85278 4.27884 7.61107 4.1063L1.865 0.00166512ZM19.8548 19.8554C19.9414 19.7685 20.0443 19.6996 20.1576 19.6526C20.2709 19.6056 20.3923 19.5814 20.515 19.5814C20.6377 19.5814 20.7591 19.6056 20.8724 19.6526C20.9857 19.6996 21.0886 19.7685 21.1752 19.8554L26.7702 25.45C26.8569 25.5367 26.9257 25.6397 26.9726 25.7529C27.0195 25.8662 27.0437 25.9876 27.0437 26.1102C27.0437 26.2328 27.0195 26.3542 26.9726 26.4675C26.9257 26.5808 26.8569 26.6837 26.7702 26.7704C26.6835 26.8571 26.5806 26.9259 26.4673 26.9728C26.354 27.0197 26.2326 27.0438 26.11 27.0438C25.9874 27.0438 25.866 27.0197 25.7527 26.9728C25.6394 26.9259 25.5365 26.8571 25.4498 26.7704L19.8548 21.1757C19.768 21.0891 19.6991 20.9862 19.652 20.8729C19.605 20.7596 19.5808 20.6382 19.5808 20.5155C19.5808 20.3929 19.605 20.2714 19.652 20.1582C19.6991 20.0449 19.768 19.942 19.8548 19.8554ZM5.595 20.5155L6.47342 20.9668L7.46 21.0153L7.99526 21.8452L8.82518 22.3804L8.87367 23.367L9.325 24.2453L8.87367 25.1237L8.82518 26.1102L7.99526 26.6454L7.46 27.4753L6.47342 27.5238L5.595 27.9751L4.71659 27.5238L3.73 27.4753L3.19475 26.6454L2.36482 26.1102L2.31633 25.1237L1.865 24.2453L2.31633 23.367L2.36482 22.3804L3.19475 21.8452L3.73 21.0153L4.71659 20.9668L5.595 20.5155Z"/>
</svg>
